<svg xmlns="http://www.w3.org/2000/svg" viewBox="0 0 512 512" width="100%" height="100%">
  <rect width="512" height="512" rx="110" fill="#09090b"/>
  <g transform="translate(48, 142) scale(0.85)">
    <polygon fill="#ffffff" points="450.68 135.06 450.68 210.98 226.5 210.98 226.5 155.84 247.44 135.06 280.76 101.99 280.76 159.54 393.08 159.54 393.08 135.06 450.68 135.06"/>
    <polygon fill="#ffffff" points="226.5 17.98 226.5 21.46 182.4 65.22 156.29 91.14 139.32 107.98 112.03 135.06 87.37 159.54 38.41 208.13 38.41 140.25 43.63 135.06 87.89 91.14 114 65.22 139.32 40.09 161.6 17.98 226.5 17.98"/>
    <polygon fill="#ffffff" points="327.44 17.98 280.76 64.31 279.84 65.22 253.72 91.14 226.5 118.16 209.47 135.06 184.81 159.54 139.32 204.68 139.32 139.83 144.12 135.06 188.38 91.14 214.49 65.22 226.5 53.3 262.09 17.98 327.44 17.98"/>
    <polygon fill="#ffffff" points="450.68 17.98 450.68 91.14 393.08 91.14 393.08 65.22 317.81 65.22 365.41 17.98 450.68 17.98"/>
  </g>
</svg>
